<?xml version="1.0" encoding="iso-8859-1"?>
<!-- Generator: Adobe Illustrator 18.0.0, SVG Export Plug-In . SVG Version: 6.00 Build 0)  -->
<!DOCTYPE svg PUBLIC "-//W3C//DTD SVG 1.1//EN" "http://www.w3.org/Graphics/SVG/1.1/DTD/svg11.dtd">
<svg xmlns="http://www.w3.org/2000/svg" xmlns:xlink="http://www.w3.org/1999/xlink" version="1.1" id="Capa_1" x="0px" y="0px" viewBox="0 0 60 60" style="enable-background:new 0 0 60 60;" xml:space="preserve" width="512px" height="512px">
<path d="M54,2.5H6c-3.252,0-6,2.748-6,6v33c0,3.252,2.748,6,6,6h14.555l8.702,9.669C29.446,57.38,29.716,57.5,30,57.5  s0.554-0.12,0.743-0.331l8.702-9.669H54c3.252,0,6-2.748,6-6v-33C60,5.248,57.252,2.5,54,2.5z M58,41.5c0,2.168-1.832,4-4,4H41.462  l2.313-2.289c0.393-0.389,0.396-1.022,0.007-1.415c-0.389-0.391-1.021-0.396-1.415-0.007l-4.011,3.969  c-0.031,0.027-0.072,0.041-0.1,0.073L30,55.005l-8.257-9.174c-0.006-0.007-0.016-0.009-0.022-0.016  c-0.007-0.008-0.01-0.018-0.017-0.026l-4.042-4c-0.393-0.389-1.025-0.384-1.415,0.007c-0.388,0.393-0.385,1.026,0.007,1.415  l2.313,2.289H6c-2.168,0-4-1.832-4-4v-33c0-2.168,1.832-4,4-4h48c2.168,0,4,1.832,4,4V41.5z" fill="#FFDA44"/>
<g>
</g>
<g>
</g>
<g>
</g>
<g>
</g>
<g>
</g>
<g>
</g>
<g>
</g>
<g>
</g>
<g>
</g>
<g>
</g>
<g>
</g>
<g>
</g>
<g>
</g>
<g>
</g>
<g>
</g>
</svg>
