<?xml version="1.0" encoding="utf-8"?>
<!-- Generator: Adobe Illustrator 18.0.0, SVG Export Plug-In . SVG Version: 6.00 Build 0)  -->
<!DOCTYPE svg PUBLIC "-//W3C//DTD SVG 1.1//EN" "http://www.w3.org/Graphics/SVG/1.1/DTD/svg11.dtd">
<svg version="1.1" id="Capa_1" xmlns="http://www.w3.org/2000/svg" xmlns:xlink="http://www.w3.org/1999/xlink" x="0px" y="0px"
	 viewBox="0 0 512 512" enable-background="new 0 0 512 512" xml:space="preserve">
<path fill="#FFDA44" d="M446.5,37.2H65.5C29.4,37.2,0,66.6,0,102.7v140.6c0,36.1,29.4,65.5,65.5,65.5h129.5l52.8,52.8
	c2.3,2.3,5.3,3.4,8.2,3.4c3,0,6-1.1,8.2-3.4l52.8-52.8h129.5c36.1,0,65.5-29.4,65.5-65.5V102.7C512,66.6,482.6,37.2,446.5,37.2z"/>
<path fill="#FFDA44" d="M446.5,49.2H65.5C29.4,49.2,0,78.6,0,114.7v140.6c0,36.1,29.4,65.5,65.5,65.5h129.5l52.8,52.8
	c2.3,2.3,5.3,3.4,8.2,3.4c3,0,6-1.1,8.2-3.4l52.8-52.8h129.5c36.1,0,65.5-29.4,65.5-65.5V114.7C512,78.6,482.6,49.2,446.5,49.2z"/>
<path fill="#FFDA44" d="M446.5,83.2H65.5C29.4,83.2,0,112.6,0,148.7v140.6c0,36.1,29.4,65.5,65.5,65.5h129.5l52.8,52.8
	c2.3,2.3,5.3,3.4,8.2,3.4c3,0,6-1.1,8.2-3.4l52.8-52.8h129.5c36.1,0,65.5-29.4,65.5-65.5V148.7C512,112.6,482.6,83.2,446.5,83.2z"/>
<path fill="#FFDA44" d="M446.5,133.2H65.5C29.4,133.2,0,162.6,0,198.7v140.6c0,36.1,29.4,65.5,65.5,65.5h129.5l52.8,52.8
	c2.3,2.3,5.3,3.4,8.2,3.4c3,0,6-1.1,8.2-3.4l52.8-52.8h129.5c36.1,0,65.5-29.4,65.5-65.5V198.7C512,162.6,482.6,133.2,446.5,133.2z"
	/>
</svg>
